HIERARCHY
ROOT Hips
{
	OFFSET 0.00000 0.00000 0.00000
	CHANNELS 6 Xposition Yposition Zposition Zrotation Yrotation Xrotation 
	JOINT LHipJoint
	{
		OFFSET 0 0 0
		CHANNELS 3 Zrotation Yrotation Xrotation
		JOINT LeftUpLeg
		{
			OFFSET 1.48831 -1.59570 0.95625
			CHANNELS 3 Zrotation Yrotation Xrotation
			JOINT LeftLeg
			{
				OFFSET 2.20856 -6.06797 0.00000
				CHANNELS 3 Zrotation Yrotation Xrotation
				JOINT LeftFoot
				{
					OFFSET 2.62924 -7.22379 0.00000
					CHANNELS 3 Zrotation Yrotation Xrotation
					JOINT LeftToeBase
					{
						OFFSET 0.16802 -0.46163 2.41673
						CHANNELS 3 Zrotation Yrotation Xrotation
						End Site
						{
							OFFSET 0.00000 -0.00000 1.23760
						}
					}
				}
			}
		}
	}
	JOINT RHipJoint
	{
		OFFSET 0 0 0
		CHANNELS 3 Zrotation Yrotation Xrotation
		JOINT RightUpLeg
		{
			OFFSET -1.56796 -1.59570 0.95625
			CHANNELS 3 Zrotation Yrotation Xrotation
			JOINT RightLeg
			{
				OFFSET -2.29239 -6.29829 0.00000
				CHANNELS 3 Zrotation Yrotation Xrotation
				JOINT RightFoot
				{
					OFFSET -2.66963 -7.33475 0.00000
					CHANNELS 3 Zrotation Yrotation Xrotation
					JOINT RightToeBase
					{
						OFFSET -0.18185 -0.49964 2.34359
						CHANNELS 3 Zrotation Yrotation Xrotation
						End Site
						{
							OFFSET -0.00000 -0.00000 1.20477
						}
					}
				}
			}
		}
	}
	JOINT LowerBack
	{
		OFFSET 0 0 0
		CHANNELS 3 Zrotation Yrotation Xrotation
		JOINT Spine
		{
			OFFSET 0.03505 2.15832 -0.34324
			CHANNELS 3 Zrotation Yrotation Xrotation
			JOINT Spine1
			{
				OFFSET -0.01089 2.17963 0.04689
				CHANNELS 3 Zrotation Yrotation Xrotation
				JOINT Neck
				{
					OFFSET 0 0 0
					CHANNELS 3 Zrotation Yrotation Xrotation
					JOINT Neck1
					{
						OFFSET 0.04686 1.69404 0.22159
						CHANNELS 3 Zrotation Yrotation Xrotation
						JOINT Head
						{
							OFFSET 0.00265 1.69305 -0.01513
							CHANNELS 3 Zrotation Yrotation Xrotation
							End Site
							{
								OFFSET -0.00415 1.80215 -0.03034
							}
						}
					}
				}
				JOINT LeftShoulder
				{
					OFFSET 0 0 0
					CHANNELS 3 Zrotation Yrotation Xrotation
					JOINT LeftArm
					{
						OFFSET 3.67184 1.11724 -0.19002
						CHANNELS 3 Zrotation Yrotation Xrotation
						JOINT LeftForeArm
						{
							OFFSET 5.17714 -0.00000 -0.00000
							CHANNELS 3 Zrotation Yrotation Xrotation
							JOINT LeftHand
							{
								OFFSET 3.43679 -0.00000 -0.00000
								CHANNELS 3 Zrotation Yrotation Xrotation
								JOINT LeftFingerBase
								{
									OFFSET 0 0 0
									CHANNELS 3 Zrotation Yrotation Xrotation
									JOINT LeftHandIndex1
									{
										OFFSET 0.57312 -0.00000 -0.00000
										CHANNELS 3 Zrotation Yrotation Xrotation
										End Site
										{
											OFFSET 0.46206 -0.00000 -0.00000
										}
									}
								}
								JOINT LThumb
								{
									OFFSET 0 0 0
									CHANNELS 3 Zrotation Yrotation Xrotation
									End Site
									{
										OFFSET 0.46912 -0.00000 0.46912
									}
								}
							}
						}
					}
				}
				JOINT RightShoulder
				{
					OFFSET 0 0 0
					CHANNELS 3 Zrotation Yrotation Xrotation
					JOINT RightArm
					{
						OFFSET -3.59596 0.95831 -0.26050
						CHANNELS 3 Zrotation Yrotation Xrotation
						JOINT RightForeArm
						{
							OFFSET -5.23908 -0.00000 -0.00000
							CHANNELS 3 Zrotation Yrotation Xrotation
							JOINT RightHand
							{
								OFFSET -3.46485 -0.00000 -0.00000
								CHANNELS 3 Zrotation Yrotation Xrotation
								JOINT RightFingerBase
								{
									OFFSET 0 0 0
									CHANNELS 3 Zrotation Yrotation Xrotation
									JOINT RightHandIndex1
									{
										OFFSET -0.60875 -0.00000 -0.00000
										CHANNELS 3 Zrotation Yrotation Xrotation
										End Site
										{
											OFFSET -0.49079 -0.00000 -0.00000
										}
									}
								}
								JOINT RThumb
								{
									OFFSET 0 0 0
									CHANNELS 3 Zrotation Yrotation Xrotation
									End Site
									{
										OFFSET -0.49829 -0.00000 0.49829
									}
								}
							}
						}
					}
				}
			}
		}
	}
}
MOTION
Frames: 11
Frame Time: 0.1
0.00 0.00 0.00 0 0 0 0 0 0 -21 0 0 0 0 0 0 0 0 0 0 0 0 0 0 21 0 0 0 0 0 0 0 0 0 0 0 0 0 0 0 0 0 0 0 0 0 0 -16 0 0 21 0 0 11 0 0 0 -8 0 0 0 0 0 0 0 0 0 0 0 0 0 0 0 0 0 0 0 0 8 0 0 0 0 0 0 0 0 0 0 0 0 0 0 0 0 0
0.00 0.00 0.00 -182.9000 -34.4321 -174.6270 0.0000 0.0000 0.0000 -24.3207 11.6416 -11.1487 1.7679 8.3648 23.8278 1.7147 -3.5804 -23.8739 0.0015 -0.2504 -0.6879 0.0000 0.0000 0.0000 17.4335 10.8027 -21.6515 -7.3875 -15.6497 50.3249 -2.6505 0.8381 -30.6180 -0.1872 2.7869 -7.6859 -3.5722 0.5008 -1.3571 -1.1945 0.7515 2.1173 0.8007 0.2894 2.9080 1.5645 -0.1023 -3.3055 4.0024 -0.2789 -1.6244 0.9593 -0.1800 0.0522 -0.0000 0.0000 0.0000 -88.4084 1.6602 18.1316 11.0635 -18.3856 -1.7959 -0.0000 0.0000 -14.2483 17.5835 13.1218 4.1150 -7.1250 0.0000 -0.0000 -8.9037 43.5417 0.3231 -0.0000 0.0000 0.0000 91.3165 0.3211 18.6406 -15.4895 24.8236 -3.4288 0.0000 0.0000 7.1582 -16.6441 -8.7413 2.6013 7.1250 -0.0000 -0.0000 8.8764 -38.9512 1.3351
0.00 0.00 0.00 -179.0150 -27.8150 -176.3450 0.0000 0.0000 0.0000 -22.0499 15.2087 3.5640 0.1962 2.8527 7.8690 1.5079 4.9038 -25.4129 0.0100 -0.6463 -1.7762 0.0000 0.0000 0.0000 19.1995 13.6614 -41.0986 -7.1841 -15.4850 49.5672 -1.4466 -5.4130 -25.2403 -0.0424 1.3290 -3.6546 -0.2377 -0.9063 2.2227 -0.4181 -1.2897 2.9026 -0.2876 -0.6805 1.7243 2.9029 2.2595 -3.8860 2.3631 2.7735 -4.7787 0.2586 1.2262 -0.8129 -0.0000 0.0000 0.0000 -87.4977 -5.4846 23.3053 11.1133 -18.4617 -1.8116 -0.0000 0.0000 -13.2551 18.4775 13.3352 4.4072 -7.1250 0.0000 -0.0000 -8.1455 43.8606 0.2307 -0.0000 0.0000 0.0000 89.4742 -5.0237 16.7926 -14.6149 23.6068 -3.0700 0.0000 0.0000 6.8795 -18.2188 -9.2841 3.0396 7.1250 -0.0000 -0.0000 7.6142 -39.6340 1.0138
0.00 0.00 0.00 -181.4810 -24.3262 -175.3000 0.0000 0.0000 0.0000 -16.8307 21.6630 24.8984 0.0000 -0.0000 -0.0000 -0.4708 13.1649 -10.5356 2.4268 -9.7036 -28.0220 0.0000 0.0000 0.0000 15.9058 14.8448 -38.2592 -4.2874 -12.5333 37.6458 -0.1274 -13.6144 -20.7696 -0.0026 -0.3304 0.9077 -0.6249 -0.9515 1.5074 -0.3366 -1.3456 2.9200 -0.0019 -0.7163 2.1540 3.3221 3.0103 -4.6074 1.2116 3.6922 -4.4364 -0.1373 1.6963 -0.5603 -0.0000 0.0000 0.0000 -87.7169 -3.2683 26.8453 15.6556 -25.0515 -3.4989 -0.0000 0.0000 -17.3179 19.0836 12.7799 4.3762 -7.1250 0.0000 -0.0000 -7.4842 43.3511 0.3064 -0.0000 0.0000 0.0000 90.9977 -9.5460 9.2027 -10.8189 18.0102 -1.7195 0.0000 0.0000 13.4382 -15.9287 -8.8157 2.5045 7.1250 -0.0000 -0.0000 9.5002 -38.9741 1.4255
0.00 0.00 0.00 -181.3380 -23.2250 -176.1100 0.0000 0.0000 0.0000 -15.8202 20.5815 19.4828 0.5770 4.8642 13.5217 -1.2283 19.8602 -1.8653 1.4374 -7.5801 -21.4459 0.0000 0.0000 0.0000 18.3080 14.1797 -33.1614 -4.3018 -12.5516 37.7123 -0.1171 -12.6783 -19.4375 -0.0344 -1.1968 3.2906 -0.4785 -0.8378 1.1940 -0.3858 -1.1789 2.6929 -0.1362 -0.6235 2.0915 3.5597 3.2614 -4.9808 1.1744 4.0203 -2.5768 -0.1599 1.9184 0.0726 0.0000 -0.0000 0.0000 -88.2074 0.0575 23.2761 14.8580 -23.9479 -3.1681 -0.0000 0.0000 -16.6396 18.9411 12.4141 4.2194 -7.1250 0.0000 -0.0000 -7.5393 42.9554 0.3827 0.0000 -0.0000 0.0000 91.0890 -8.9982 11.2209 -10.7961 17.9750 -1.7125 0.0000 0.0000 13.3752 -15.4557 -8.7785 2.4163 7.1250 -0.0000 -0.0000 9.8969 -38.9007 1.5044
0.00 0.00 0.00 -179.5290 -23.1871 -178.0270 0.0000 0.0000 0.0000 -13.7696 16.3166 9.1428 3.8408 11.9455 35.5393 -1.1030 22.0699 5.2268 0.1752 -2.6966 -7.4352 0.0000 0.0000 0.0000 22.1614 12.0467 -27.3880 -3.9435 -12.0849 36.0329 -0.2964 -11.6556 -20.1648 -0.0918 -1.9536 5.3774 1.4895 -0.9229 2.0374 -0.0676 -1.2880 2.5996 -0.8950 -0.6484 1.4888 3.8275 3.4559 -5.7114 1.0017 4.2386 -0.4151 -0.2211 2.0878 0.8782 0.0000 -0.0000 0.0000 -88.5523 2.2309 20.1873 14.3167 -23.1856 -2.9516 -0.0000 0.0000 -16.3137 17.7203 12.6486 4.0023 -7.1250 0.0000 -0.0000 -8.6788 43.0693 0.4169 0.0000 -0.0000 0.0000 91.0153 -8.0011 13.8416 -11.2622 18.6891 -1.8591 0.0000 0.0000 12.0551 -15.4486 -8.9181 2.4532 7.1250 -0.0000 -0.0000 9.9283 -39.0424 1.4743
0.00 0.00 0.00 -175.8420 -22.7369 -180.4830 0.0000 0.0000 0.0000 -10.7371 9.6681 -1.0958 8.5036 16.4775 54.3570 -0.2601 13.5319 5.8487 0.2849 -3.4328 -9.4860 0.0000 0.0000 0.0000 27.7214 9.5696 -20.3522 -3.1820 -10.9840 32.2259 -0.4918 -10.7623 -21.1988 -0.1236 -2.2663 6.2422 5.5026 -0.6080 2.5516 0.7053 -0.8617 2.8641 -2.3471 -0.3902 1.4554 3.8968 3.4175 -5.9790 0.7630 4.1807 0.4842 -0.2954 2.0810 1.2168 0.0000 -0.0000 0.0000 -88.8944 2.9050 18.1603 13.7329 -22.3516 -2.7257 -0.0000 0.0000 -15.6294 17.2114 13.0450 3.9996 -7.1250 0.0000 -0.0000 -9.2202 43.4225 0.3622 0.0000 -0.0000 0.0000 90.5099 -6.1032 18.6128 -12.7718 20.9520 -2.3711 0.0000 0.0000 8.5123 -16.8380 -9.2254 2.7778 7.1250 -0.0000 -0.0000 8.7934 -39.4639 1.2106
0.00 0.00 0.00 -174.8390 -19.2516 -181.1180 0.0000 0.0000 0.0000 -12.3599 -2.4820 -20.6356 11.9232 18.3580 65.7451 0.1938 1.7606 -9.1555 0.9310 -6.1464 -17.2097 0.0000 0.0000 0.0000 31.0429 6.2396 -9.9714 -2.4942 -9.8274 28.4195 -1.2933 -6.4835 -24.7159 -0.0858 -1.8897 5.2010 7.0963 0.9533 1.8602 0.5611 1.1564 3.1102 -3.3938 0.6762 2.3131 4.3395 3.4293 -6.3895 0.4335 4.1507 2.6592 -0.4484 2.1117 2.0153 -0.0000 0.0000 0.0000 -89.0383 4.0483 16.4105 13.5657 -22.1104 -2.6624 -0.0000 0.0000 -17.5823 16.9358 12.4786 3.7644 -7.1250 0.0000 -0.0000 -9.3415 42.8128 0.5090 -0.0000 0.0000 0.0000 89.1145 0.0610 27.3025 -16.1524 25.7268 -3.7119 0.0000 0.0000 3.3641 -18.7194 -9.1408 3.0814 7.1250 -0.0000 -0.0000 7.1595 -39.5246 0.9719
0.00 0.00 0.00 -173.6760 -16.9255 -181.1250 0.0000 0.0000 0.0000 -12.6750 -6.7858 -31.0009 7.0857 15.4037 49.1978 0.7181 4.8138 -18.4706 0.9366 -6.1644 -17.2622 0.0000 0.0000 0.0000 32.9570 3.0915 -2.5979 -2.2187 -9.3074 26.7618 -2.0045 -3.3611 -28.1207 -0.0146 -0.7812 2.1469 8.6939 1.5367 1.6621 0.3725 1.9549 2.7317 -4.4754 1.1026 2.1958 4.8235 3.9454 -6.3842 -0.0291 4.8175 3.6977 -0.6409 2.4579 2.4028 0.0000 0.0000 0.0000 -88.4275 6.1577 16.0765 13.5758 -22.1250 -2.6662 -0.0000 0.0000 -16.8033 16.5081 12.1467 3.5683 -7.1250 0.0000 -0.0000 -9.6491 42.4296 0.6182 0.0000 0.0000 0.0000 88.8323 4.5793 33.2169 -19.3064 29.7976 -5.1822 0.0000 0.0000 0.1739 -18.5612 -9.0549 3.0250 7.1250 -0.0000 -0.0000 7.2825 -39.4225 1.0072
0.00 0.00 0.00 -171.8480 -15.2420 -181.1850 0.0000 0.0000 0.0000 -13.7175 -3.2120 -34.9724 2.3410 9.5429 27.5087 0.8351 4.0972 -19.2180 0.8896 -6.0121 -16.8196 0.0000 0.0000 0.0000 33.7683 -2.5748 6.7844 -1.0099 -6.3943 17.9329 -1.8728 -1.2605 -26.3570 -0.0085 0.5940 -1.6323 10.8725 1.9675 0.9813 0.5379 2.4130 2.8105 -5.4840 1.3978 2.8394 5.0908 4.3668 -6.0638 -0.7052 5.4211 2.6379 -0.8920 2.7293 2.0416 0.0000 -0.0000 0.0000 -88.1549 6.0879 15.4106 12.7377 -20.9016 -2.3589 -0.0000 0.0000 -15.5057 17.1748 11.7973 3.6157 -7.1250 0.0000 -0.0000 -8.9859 42.1379 0.6402 0.0000 -0.0000 0.0000 88.6150 6.9667 37.7513 -22.5579 33.6018 -6.8920 0.0000 -0.0000 -1.3777 -19.2042 -9.1100 3.1567 7.1250 -0.0000 -0.0000 6.7362 -39.5308 0.9128
0.00 0.00 0.00 -170.5810 -12.9387 -182.4190 0.0000 0.0000 0.0000 -15.6115 1.7590 -34.9867 2.3059 9.4761 27.2963 0.3983 5.2416 -15.0029 0.6112 -5.0038 -13.9195 0.0000 0.0000 0.0000 29.6607 -8.3637 17.7947 -1.5145 -7.7717 22.0229 -0.3941 0.2215 -11.7834 -0.6774 5.2628 -14.6596 10.7779 2.4265 -0.3491 0.3317 2.8985 2.6591 -5.5785 1.6800 3.5230 7.0787 5.7864 -5.1795 -2.0816 7.2893 2.3478 -1.6198 3.6498 2.0029 0.0000 -0.0000 0.0000 -87.7310 3.1009 8.7887 8.5226 -14.3964 -1.0783 -0.0000 0.0000 -6.9721 16.5065 12.4006 3.6412 -7.1250 0.0000 -0.0000 -9.7058 42.6890 0.5592 0.0000 -0.0000 0.0000 90.0132 4.6144 40.4173 -21.3992 32.2914 -6.2618 0.0000 0.0000 2.4410 -19.5207 -9.2847 3.2737 7.1250 -0.0000 -0.0000 6.4888 -39.7394 0.8455
